<svg height="100" width="100" fill="currentColor" xmlns="http://www.w3.org/2000/svg" viewBox="0 0 160 160"><path d="M82.99 131.6c0 1.65-1.34 2.99-2.99 2.99-1.64 0-2.99-1.34-2.99-2.99a2.99 2.99 0 015.98 0z"/><path d="M152.5 59.07c0-24.53-19.96-44.49-44.51-44.52h-1.97c-9.28 0-18.07 2.77-25.59 8.01a45.621 45.621 0 00-25.87-8.01h-2.49C27.5 14.55 7.5 34.52 7.5 59.07v13.97c0 15.83 5.23 31.27 14.77 43.8l-2.36 2.36a14.389 14.389 0 00-4.24 10.23c0 3.86 1.51 7.49 4.25 10.23a14.43 14.43 0 0010.23 4.23c3.71 0 7.41-1.41 10.24-4.23l3.71-3.7c10.82 6.18 23.1 9.49 35.9 9.49 12.72 0 25.14-3.31 36.1-9.6l3.78 3.79a14.34 14.34 0 0010.23 4.25h.01c3.87 0 7.5-1.5 10.24-4.24 2.73-2.74 4.24-6.37 4.24-10.22 0-3.85-1.51-7.48-4.24-10.22l-2.52-2.51a72.453 72.453 0 0014.66-43.66V59.07zM35.44 134.71a7.493 7.493 0 01-10.58-.01 7.407 7.407 0 01-2.19-5.27c0-1.99.78-3.86 2.19-5.27l1.94-1.94a74.7 74.7 0 001.94 2.03c2.91 2.9 6.03 5.51 9.32 7.85l-2.62 2.61zM80 138.45c-17.49 0-33.94-6.8-46.31-19.16a62.6 62.6 0 01-4.04-4.42c-9.77-11.7-15.15-26.56-15.15-41.83V59.07c0-20.69 16.86-37.52 37.57-37.52h2.49c8.62 0 16.59 2.82 23.04 7.58v.01c.37.46.82.79 1.32 1.02 8.83 7.12 14.5 18.01 14.5 30.2v11.96L81.14 60.06c-1.73-1.73-3.02-3.91-3.75-6.29-1.52-4.95-4.52-9.22-8.67-12.35h-.01c-4.27-3.23-9.37-4.94-14.75-4.94-6.55 0-12.7 2.55-17.33 7.17a24.327 24.327 0 00-7.17 17.31v12.08c0 11.17 3.58 21.75 10.34 30.58a50.733 50.733 0 0018.38 14.97c6.84 3.27 14.18 4.93 21.82 4.93 6.9 0 13.53-1.35 19.76-4.01l11.19 11.19A65.459 65.459 0 0180 138.45zm-20.97-27.3c-4.42-2.43-8.4-5.64-11.72-9.42l19.98-19.96c2.12 4.67 4.83 9.06 8.11 13.02l-16.37 16.36zm21.15-11.23l14.18 14.19c-4.58 1.6-9.39 2.41-14.36 2.41-4.87 0-9.6-.79-14.11-2.33l14.29-14.27zM64.56 74.61L43.07 96.07c-4.33-6.88-6.61-14.77-6.61-23.03V60.96c0-4.67 1.82-9.06 5.12-12.36 3.31-3.3 7.7-5.12 12.38-5.12 3.15 0 6.15.83 8.81 2.39l-.08.52a61.29 61.29 0 001.87 28.22zm70.85 60.09c-1.41 1.41-3.29 2.19-5.29 2.19s-3.87-.78-5.28-2.2l-40.89-40.9c-.42-.43-.84-.86-1.24-1.29-9.98-10.67-14.94-25.52-13.69-40.46.7 1.18 1.26 2.44 1.67 3.78a22.27 22.27 0 005.5 9.19l59.22 59.14a7.464 7.464 0 012.19 5.28c0 1.99-.78 3.86-2.19 5.27zM98.08 45.96c1.17-.71 2.41-1.29 3.71-1.7 1.61-.52 3.31-.78 5.05-.78 9.21 0 16.7 7.49 16.7 16.68v12.88c0 8.19-2.24 16.02-6.51 22.87l-16.61-16.6V60.36c0-5.03-.83-9.87-2.34-14.4zm47.42 27.08c0 13.91-4.48 27.49-12.67 38.65l-10.73-10.72c5.53-8.28 8.44-17.87 8.44-27.93V60.16c0-13.05-10.63-23.68-23.7-23.68-2.47 0-4.88.38-7.17 1.11-1.5.47-2.94 1.11-4.32 1.87-2.37-4.6-5.5-8.74-9.22-12.28 5.95-3.69 12.75-5.63 19.89-5.63h1.92c20.71 0 37.56 16.83 37.56 37.52v13.97z"/><path d="M57.1 124.67c0 1.65-1.34 2.99-2.99 2.99-1.65 0-2.99-1.34-2.99-2.99a2.99 2.99 0 012.99-2.98 2.99 2.99 0 012.99 2.98zM37.5 109.19c0 1.64-1.34 2.98-2.98 2.98a2.99 2.99 0 01-2.99-2.98c0-1.65 1.34-2.99 2.99-2.99a2.99 2.99 0 012.98 2.99zM25.3 80c0 1.65-1.34 2.99-2.99 2.99A2.99 2.99 0 0119.33 80c0-1.64 1.34-2.98 2.98-2.98A2.99 2.99 0 0125.3 80zM85.83 48.55c0 1.65-1.34 2.99-2.99 2.99-1.65 0-2.99-1.34-2.99-2.99a2.99 2.99 0 012.99-2.98 2.99 2.99 0 012.99 2.98zM55.95 28.65c0 1.64-1.34 2.98-2.98 2.98a2.99 2.99 0 01-2.99-2.98c0-1.65 1.34-2.99 2.99-2.99a2.99 2.99 0 012.98 2.99zM26.9 48.55c0 1.65-1.34 2.99-2.99 2.99s-2.99-1.34-2.99-2.99c0-1.64 1.34-2.98 2.99-2.98s2.99 1.34 2.99 2.98zM84.52 80c0 1.65-1.34 2.99-2.99 2.99s-2.99-1.34-2.99-2.99c0-1.64 1.34-2.98 2.99-2.98s2.99 1.34 2.99 2.98zM122.22 118.64c0 1.65-1.34 2.99-2.99 2.99-1.65 0-2.99-1.34-2.99-2.99a2.99 2.99 0 012.99-2.98 2.99 2.99 0 012.99 2.98zM103.38 99.02c0 1.64-1.34 2.98-2.98 2.98a2.99 2.99 0 01-2.99-2.98c0-1.65 1.34-2.99 2.99-2.99a2.99 2.99 0 012.98 2.99zM63.38 99.02c0 1.64-1.34 2.98-2.98 2.98a2.99 2.99 0 01-2.99-2.98c0-1.65 1.34-2.99 2.99-2.99a2.99 2.99 0 012.98 2.99zM140.68 80c0 1.65-1.34 2.99-2.99 2.99-1.65 0-2.99-1.34-2.99-2.99a2.99 2.99 0 012.99-2.98 2.99 2.99 0 012.99 2.98zM110.03 28.65c0 1.64-1.34 2.98-2.99 2.98s-2.99-1.34-2.99-2.98c0-1.65 1.34-2.99 2.99-2.99s2.99 1.34 2.99 2.99zM139.08 48.55a2.99 2.99 0 01-2.98 2.99c-1.65 0-2.99-1.34-2.99-2.99a2.99 2.99 0 012.99-2.98c1.64 0 2.98 1.34 2.98 2.98z"/></svg>
